<svg id="Layer_1" data-name="Layer 1" xmlns="http://www.w3.org/2000/svg" xmlns:xlink="http://www.w3.org/1999/xlink" viewBox="0 0 512 512"><defs><pattern id="USGS_8_Sewage_Disposal" data-name="USGS 8 Sewage Disposal" width="72" height="74.8" patternTransform="translate(-358.13 756.16) scale(2.7 2.7)" patternUnits="userSpaceOnUse" viewBox="0 0 72 74.8"><rect width="72" height="74.8" fill="none"/><line y1="73.95" x2="72" y2="73.95" fill="none" stroke="#1f191a" stroke-linecap="square" stroke-width="0.3"/><line y1="72.25" x2="72" y2="72.25" fill="none" stroke="#1f191a" stroke-linecap="square" stroke-width="0.3"/><line y1="70.55" x2="72" y2="70.55" fill="none" stroke="#1f191a" stroke-linecap="square" stroke-width="0.3"/><line y1="68.85" x2="72" y2="68.85" fill="none" stroke="#1f191a" stroke-linecap="square" stroke-width="0.3"/><line y1="67.15" x2="72" y2="67.15" fill="none" stroke="#1f191a" stroke-linecap="square" stroke-width="0.3"/><line y1="65.45" x2="72" y2="65.45" fill="none" stroke="#1f191a" stroke-linecap="square" stroke-width="0.3"/><line y1="63.75" x2="72" y2="63.75" fill="none" stroke="#1f191a" stroke-linecap="square" stroke-width="0.3"/><line y1="62.05" x2="72" y2="62.05" fill="none" stroke="#1f191a" stroke-linecap="square" stroke-width="0.3"/><line y1="60.35" x2="72" y2="60.35" fill="none" stroke="#1f191a" stroke-linecap="square" stroke-width="0.3"/><line y1="58.65" x2="72" y2="58.65" fill="none" stroke="#1f191a" stroke-linecap="square" stroke-width="0.3"/><line y1="56.95" x2="72" y2="56.95" fill="none" stroke="#1f191a" stroke-linecap="square" stroke-width="0.3"/><line y1="55.25" x2="72" y2="55.25" fill="none" stroke="#1f191a" stroke-linecap="square" stroke-width="0.3"/><line y1="53.55" x2="72" y2="53.55" fill="none" stroke="#1f191a" stroke-linecap="square" stroke-width="0.3"/><line y1="51.85" x2="72" y2="51.85" fill="none" stroke="#1f191a" stroke-linecap="square" stroke-width="0.3"/><line y1="50.15" x2="72" y2="50.15" fill="none" stroke="#1f191a" stroke-linecap="square" stroke-width="0.3"/><line y1="48.45" x2="72" y2="48.45" fill="none" stroke="#1f191a" stroke-linecap="square" stroke-width="0.3"/><line y1="46.75" x2="72" y2="46.75" fill="none" stroke="#1f191a" stroke-linecap="square" stroke-width="0.3"/><line y1="45.05" x2="72" y2="45.05" fill="none" stroke="#1f191a" stroke-linecap="square" stroke-width="0.3"/><line y1="43.35" x2="72" y2="43.35" fill="none" stroke="#1f191a" stroke-linecap="square" stroke-width="0.3"/><line y1="41.65" x2="72" y2="41.65" fill="none" stroke="#1f191a" stroke-linecap="square" stroke-width="0.3"/><line y1="39.95" x2="72" y2="39.95" fill="none" stroke="#1f191a" stroke-linecap="square" stroke-width="0.3"/><line y1="38.25" x2="72" y2="38.25" fill="none" stroke="#1f191a" stroke-linecap="square" stroke-width="0.3"/><line y1="36.55" x2="72" y2="36.55" fill="none" stroke="#1f191a" stroke-linecap="square" stroke-width="0.3"/><line y1="34.85" x2="72" y2="34.85" fill="none" stroke="#1f191a" stroke-linecap="square" stroke-width="0.3"/><line y1="33.15" x2="72" y2="33.15" fill="none" stroke="#1f191a" stroke-linecap="square" stroke-width="0.3"/><line y1="31.45" x2="72" y2="31.45" fill="none" stroke="#1f191a" stroke-linecap="square" stroke-width="0.3"/><line y1="29.75" x2="72" y2="29.75" fill="none" stroke="#1f191a" stroke-linecap="square" stroke-width="0.3"/><line y1="28.05" x2="72" y2="28.05" fill="none" stroke="#1f191a" stroke-linecap="square" stroke-width="0.3"/><line y1="26.35" x2="72" y2="26.35" fill="none" stroke="#1f191a" stroke-linecap="square" stroke-width="0.3"/><line y1="24.65" x2="72" y2="24.65" fill="none" stroke="#1f191a" stroke-linecap="square" stroke-width="0.3"/><line y1="22.95" x2="72" y2="22.95" fill="none" stroke="#1f191a" stroke-linecap="square" stroke-width="0.3"/><line y1="21.25" x2="72" y2="21.25" fill="none" stroke="#1f191a" stroke-linecap="square" stroke-width="0.3"/><line y1="19.55" x2="72" y2="19.55" fill="none" stroke="#1f191a" stroke-linecap="square" stroke-width="0.3"/><line y1="17.85" x2="72" y2="17.85" fill="none" stroke="#1f191a" stroke-linecap="square" stroke-width="0.3"/><line y1="16.15" x2="72" y2="16.15" fill="none" stroke="#1f191a" stroke-linecap="square" stroke-width="0.3"/><line y1="14.45" x2="72" y2="14.45" fill="none" stroke="#1f191a" stroke-linecap="square" stroke-width="0.3"/><line y1="12.75" x2="72" y2="12.75" fill="none" stroke="#1f191a" stroke-linecap="square" stroke-width="0.3"/><line y1="11.05" x2="72" y2="11.05" fill="none" stroke="#1f191a" stroke-linecap="square" stroke-width="0.3"/><line y1="9.35" x2="72" y2="9.35" fill="none" stroke="#1f191a" stroke-linecap="square" stroke-width="0.3"/><line y1="7.65" x2="72" y2="7.65" fill="none" stroke="#1f191a" stroke-linecap="square" stroke-width="0.3"/><line y1="5.95" x2="72" y2="5.95" fill="none" stroke="#1f191a" stroke-linecap="square" stroke-width="0.3"/><line y1="4.25" x2="72" y2="4.25" fill="none" stroke="#1f191a" stroke-linecap="square" stroke-width="0.3"/><line y1="2.55" x2="72" y2="2.55" fill="none" stroke="#1f191a" stroke-linecap="square" stroke-width="0.3"/><line y1="0.85" x2="72" y2="0.85" fill="none" stroke="#1f191a" stroke-linecap="square" stroke-width="0.3"/><line x1="-21.5" y1="7.65" x2="-10.25" y2="7.65" fill="none" stroke="#1f191a" stroke-linecap="square" stroke-width="0.3"/></pattern></defs><title>chat-other</title><path d="M511.27,281.2c0,126.26-102,228.08-227.76,228.08S55.71,407.46,55.71,281.2c0-125.87,101.89-227.71,227.81-227.71S511.27,155.33,511.27,281.2Z" fill="url(#USGS_8_Sewage_Disposal)"/><path d="M494.36,264.28c0,126.26-102,228.08-227.76,228.08S38.79,390.53,38.79,264.28C38.79,138.4,140.68,36.57,266.6,36.57S494.36,138.4,494.36,264.28Z" fill="url(#USGS_8_Sewage_Disposal)"/><path d="M469,245.23c0,126.26-102,228.08-227.76,228.08S13.42,371.49,13.42,245.23c0-125.87,101.89-227.71,227.81-227.71S469,119.36,469,245.23Z" fill="#1f191a"/><path d="M462.64,234.66c0,126.26-102,228.08-227.76,228.08S7.07,360.91,7.07,234.66C7.07,108.78,109,6.95,234.88,6.95S462.64,108.78,462.64,234.66Z" fill="#333"/><path d="M469,245.23c0,126.26-102,228.08-227.76,228.08S13.42,371.49,13.42,245.23c0-125.87,101.89-227.71,227.81-227.71S469,119.36,469,245.23Z" fill="none" stroke="#1f191a" stroke-width="2.12"/><path d="M458.41,232.54c0,126.26-102,228.08-227.76,228.08S2.84,358.8,2.84,232.54C2.84,106.67,104.73,4.83,230.65,4.83S458.41,106.67,458.41,232.54Z" fill="#fff"/><path d="M458.41,232.54c0,126.26-102,228.08-227.76,228.08S2.84,358.8,2.84,232.54C2.84,106.67,104.73,4.83,230.65,4.83S458.41,106.67,458.41,232.54Z" fill="#fff"/><path d="M458.41,232.54c0,126.26-102,228.08-227.76,228.08S2.84,358.8,2.84,232.54C2.84,106.67,104.73,4.83,230.65,4.83S458.41,106.67,458.41,232.54Z" fill="none" stroke="#1f191a" stroke-width="4.23"/><path d="M278.91,158.65c29.67,35.31,22,69.26,2.5,92.68-11.51,13.77-26,23-42.3,30.31-23.23,9.64-47.39,12.9-72.16,10.9-6.45-.37-10.89,1.26-15,6.26-11,13.78-22.72,26.81-34,40-6.32,3.76-4.63-1.74-4.63-4.26-.12-14.78-.44-29.05.25-43.58.19-7.64-1.94-12.77-9.26-15.9-11.7-5.52-21.65-14.4-29.92-24.43C51,222,52.54,185.57,77.82,158.65c20.15-21.3,45.75-32.19,74.29-36.45C199.56,115.43,242.87,124.7,278.91,158.65Z" fill="#060606" fill-rule="evenodd"/><path d="M400.14,211.12c9.33,34.32-.76,59.13-32.8,77.29-6.69,3.76-8.82,7.89-8.38,14.9.44,13,0,25.68,0,42-11.51-13-21.47-23.79-30.79-35.19-4.13-4.63-8.08-6.76-14.89-6.26a119.86,119.86,0,0,1-60.46-10.52c-2.56-1.13-5.69-1.76-7.25-5.52,29.35-13.77,53.89-32.56,60.58-66.51,4.19-20.53-.5-39.82-14-56.73,14.33-5,28.61-2,42.68.87C362.78,171.67,385.75,185.2,400.14,211.12Z" fill="#060606" fill-rule="evenodd"/></svg>